<svg id="svg" version="1.1" xmlns="http://www.w3.org/2000/svg" xmlns:xlink="http://www.w3.org/1999/xlink" width="400" height="400" viewBox="0, 0, 400,400"><g id="svgg"><path id="path0" d="M255.167 42.528 C 244.657 43.556,241.953 44.017,231.745 46.520 C 213.269 51.052,198.597 58.513,183.667 70.969 L 180.833 73.332 140.320 73.333 C 105.485 73.333,99.539 73.403,97.898 73.831 C 85.283 77.116,81.129 93.153,90.591 102.040 C 95.695 106.833,94.319 106.658,126.861 106.663 C 141.910 106.665,154.306 106.750,154.408 106.852 C 154.510 106.955,153.947 108.342,153.156 109.936 C 151.720 112.832,149.602 117.771,148.523 120.744 L 147.950 122.321 89.725 122.410 L 31.500 122.500 29.333 123.242 C 13.406 128.694,14.252 151.254,30.544 155.497 C 32.225 155.935,39.443 156.000,86.653 156.000 L 140.833 156.000 140.833 163.667 L 140.833 171.333 97.333 171.338 C 49.502 171.344,51.613 171.257,47.631 173.379 C 35.972 179.593,36.296 197.536,48.168 203.153 C 52.170 205.046,50.492 204.988,101.390 204.994 L 148.280 205.000 148.855 206.750 C 149.603 209.028,153.153 217.073,154.191 218.845 C 154.636 219.604,155.000 220.325,155.000 220.446 C 155.000 220.567,136.432 220.667,113.737 220.667 C 77.740 220.667,72.223 220.732,70.512 221.178 C 56.675 224.782,53.745 243.602,65.807 251.398 C 70.173 254.220,65.020 254.000,126.818 254.000 L 181.566 254.000 184.651 256.505 C 206.865 274.541,233.584 284.134,261.667 284.156 C 303.669 284.190,342.449 262.496,364.753 226.491 C 376.040 208.271,382.493 185.295,382.493 163.333 C 382.493 118.542,357.979 77.836,318.000 56.241 C 301.287 47.214,272.186 40.862,255.167 42.528 M270.232 73.025 C 311.848 76.520,346.641 110.234,351.733 152.000 C 356.607 191.977,335.028 229.901,298.000 246.433 C 260.819 263.033,216.375 251.957,190.601 219.667 C 171.431 195.650,165.689 161.557,176.060 133.333 C 190.728 93.418,228.096 69.487,270.232 73.025 M232.500 311.502 C 228.309 312.986,227.581 321.040,231.520 322.340 C 235.893 323.783,239.334 321.232,239.574 316.370 C 239.801 311.762,237.070 309.883,232.500 311.502 M49.000 314.037 C 49.000 315.422,44.519 342.273,43.991 344.054 C 43.024 347.313,40.486 349.082,37.566 348.534 C 34.404 347.941,33.379 345.059,34.561 340.083 L 34.739 339.333 29.900 339.333 L 25.060 339.333 24.613 341.750 C 22.603 352.627,25.913 357.227,36.013 357.591 C 43.822 357.872,48.374 355.806,51.461 350.578 C 53.115 347.779,53.723 345.050,56.162 329.500 C 57.370 321.800,58.440 315.087,58.539 314.583 L 58.720 313.667 53.860 313.667 C 50.516 313.667,49.000 313.782,49.000 314.037 M164.021 335.083 C 160.296 346.679,157.176 356.354,157.088 356.583 C 156.965 356.906,158.096 357.000,162.082 357.000 L 167.236 357.000 168.512 352.333 L 169.788 347.667 174.399 347.667 L 179.010 347.667 178.787 352.333 L 178.564 357.000 183.615 357.000 L 188.667 357.000 188.667 335.500 L 188.667 314.000 179.730 314.000 L 170.794 314.000 164.021 335.083 M128.000 320.492 C 124.572 322.101,123.439 322.790,123.243 323.385 C 122.859 324.552,119.333 347.417,119.333 348.738 C 119.333 354.351,123.445 357.679,130.355 357.659 C 138.028 357.636,142.605 354.161,144.801 346.689 C 145.827 343.199,145.979 343.333,141.013 343.333 L 136.692 343.333 136.316 344.750 C 135.482 347.884,133.623 349.587,131.474 349.184 C 128.954 348.711,128.533 346.741,129.561 340.250 L 130.129 336.667 137.558 336.667 L 144.987 336.667 145.144 335.917 C 145.342 334.969,146.333 328.822,146.333 328.542 C 146.333 328.427,143.033 328.333,139.000 328.333 L 131.667 328.333 131.673 327.583 C 131.676 327.171,131.973 325.033,132.333 322.833 C 133.088 318.219,133.078 318.326,132.750 318.357 C 132.612 318.370,130.475 319.331,128.000 320.492 M329.667 320.492 C 326.239 322.101,325.105 322.790,324.910 323.385 C 324.526 324.552,321.000 347.417,321.000 348.738 C 321.000 354.351,325.112 357.679,332.022 357.659 C 339.695 357.636,344.272 354.161,346.468 346.689 C 347.494 343.199,347.646 343.333,342.680 343.333 L 338.359 343.333 337.982 344.750 C 337.149 347.884,335.289 349.587,333.141 349.184 C 330.621 348.711,330.199 346.741,331.228 340.250 L 331.796 336.667 339.225 336.667 L 346.654 336.667 346.811 335.917 C 347.009 334.969,348.000 328.822,348.000 328.542 C 348.000 328.427,344.700 328.333,340.667 328.333 L 333.333 328.333 333.339 327.583 C 333.343 327.171,333.640 325.033,334.000 322.833 C 334.755 318.219,334.745 318.326,334.417 318.357 C 334.279 318.370,332.142 319.331,329.667 320.492 M179.513 331.750 C 179.378 335.829,179.199 339.279,179.114 339.417 C 178.813 339.907,171.911 339.713,172.100 339.219 C 172.195 338.973,172.895 336.535,173.655 333.802 C 174.416 331.069,175.336 327.821,175.700 326.583 L 176.362 324.333 178.060 324.333 L 179.758 324.333 179.513 331.750 M101.052 327.826 C 95.419 329.100,92.308 332.241,91.799 337.167 C 91.218 342.798,93.621 345.035,101.500 346.194 C 105.874 346.838,106.333 347.041,106.333 348.333 C 106.333 350.478,99.650 350.782,99.096 348.663 C 98.933 348.043,98.633 348.000,94.461 348.000 L 90.000 348.000 89.942 348.917 C 89.545 355.143,92.886 357.673,101.487 357.662 C 110.061 357.650,114.429 355.058,115.343 349.438 C 116.184 344.275,113.933 341.608,107.786 340.483 C 101.219 339.280,99.391 337.893,101.663 335.837 C 103.545 334.133,108.219 335.024,107.925 337.030 L 107.782 338.000 112.192 338.000 L 116.601 338.000 116.967 336.950 C 119.397 329.981,111.514 325.461,101.052 327.826 M209.620 327.834 C 208.743 328.116,207.323 329.007,206.341 329.890 L 204.609 331.447 204.842 329.890 L 205.076 328.333 200.871 328.333 C 198.559 328.333,196.667 328.395,196.667 328.470 C 196.667 328.545,195.692 334.715,194.500 342.179 C 193.308 349.644,192.333 356.033,192.333 356.376 C 192.333 357.159,201.326 357.366,201.341 356.583 C 201.346 356.354,202.002 352.064,202.799 347.050 C 204.426 336.816,204.570 336.462,207.234 336.104 C 210.348 335.687,210.701 336.921,209.525 344.112 C 208.213 352.125,208.396 354.076,210.647 356.110 C 212.797 358.051,217.203 358.254,220.118 356.546 L 221.667 355.639 221.670 353.569 C 221.672 352.431,221.769 350.927,221.885 350.226 L 222.095 348.952 220.910 349.174 C 218.046 349.712,217.816 349.131,218.687 343.558 C 220.427 332.427,220.175 330.050,217.058 328.225 C 215.632 327.390,211.651 327.180,209.620 327.834 M256.961 327.771 C 255.176 328.442,253.473 329.571,252.496 330.732 L 251.631 331.760 251.859 330.047 L 252.086 328.333 247.876 328.333 C 245.561 328.333,243.667 328.395,243.667 328.470 C 243.667 328.545,242.692 334.715,241.500 342.179 C 240.308 349.644,239.333 356.033,239.333 356.376 C 239.333 356.955,239.658 357.000,243.833 357.000 C 247.208 357.000,248.335 356.896,248.339 356.583 C 248.359 355.059,251.337 337.897,251.647 337.524 C 252.792 336.144,255.915 335.578,257.246 336.510 C 258.469 337.366,258.442 338.745,257.021 347.784 C 256.276 352.524,255.667 356.536,255.667 356.701 C 255.667 357.060,264.663 357.109,264.676 356.750 C 264.775 354.130,267.734 338.142,268.222 337.595 C 269.555 336.098,272.518 335.533,273.913 336.510 C 275.071 337.321,275.116 338.826,274.170 345.113 C 272.693 354.925,274.069 357.639,280.531 357.659 C 285.093 357.673,286.654 356.185,286.662 351.812 L 286.667 349.125 285.126 349.146 C 282.737 349.178,282.716 349.054,283.804 341.368 C 284.827 334.139,284.792 332.427,283.576 330.250 C 281.283 326.146,272.748 326.485,269.121 330.823 L 267.868 332.322 267.419 331.254 C 266.108 328.135,260.746 326.350,256.961 327.771 M298.729 327.832 C 292.591 329.558,288.667 337.947,288.670 349.333 C 288.672 357.411,297.736 360.929,303.579 355.121 L 305.325 353.385 305.955 354.810 C 307.192 357.606,311.820 358.597,315.542 356.864 C 317.667 355.875,317.541 356.130,317.824 352.262 L 318.060 349.024 316.373 349.224 C 313.812 349.527,313.803 349.417,315.523 338.815 C 316.324 333.875,316.984 329.496,316.990 329.083 C 317.000 328.347,316.929 328.333,313.000 328.333 C 309.222 328.333,309.000 328.370,309.000 329.000 C 309.000 329.706,308.515 329.896,308.164 329.329 C 307.216 327.795,301.873 326.948,298.729 327.832 M360.000 327.848 C 353.137 329.760,350.869 332.978,349.347 342.965 C 347.568 354.641,350.172 358.014,360.637 357.588 C 368.018 357.287,372.469 353.947,373.522 347.917 L 373.741 346.667 369.379 346.667 L 365.017 346.667 364.486 347.693 C 362.362 351.801,357.262 349.106,358.208 344.375 L 358.417 343.333 366.665 343.333 L 374.914 343.333 375.335 340.151 C 376.235 333.354,375.022 330.162,370.829 328.290 C 368.645 327.315,362.774 327.075,360.000 327.848 M61.667 328.676 C 61.667 328.864,60.979 333.252,60.138 338.426 C 58.290 349.802,58.155 352.539,59.338 354.639 C 61.864 359.124,70.805 358.693,74.318 353.916 L 75.289 352.596 75.639 353.897 C 76.575 357.375,81.364 358.810,85.542 356.864 C 87.690 355.864,87.604 356.035,87.870 352.249 L 88.094 349.068 86.297 349.117 L 84.500 349.167 84.416 347.667 C 84.369 346.842,84.980 342.154,85.772 337.250 L 87.213 328.333 82.671 328.333 L 78.130 328.333 76.681 337.417 C 74.833 349.002,74.784 349.105,71.031 349.109 C 67.927 349.113,67.746 347.664,69.500 336.857 C 70.142 332.903,70.667 329.368,70.667 329.001 C 70.667 328.366,70.447 328.333,66.167 328.333 C 63.310 328.333,61.667 328.458,61.667 328.676 M227.842 328.750 C 227.362 330.206,224.555 349.261,224.539 351.170 C 224.501 355.592,226.178 357.338,230.719 357.601 C 235.965 357.905,237.667 356.530,237.667 351.987 L 237.667 349.063 236.337 349.242 C 234.733 349.457,234.000 348.955,234.000 347.642 C 234.000 346.896,236.056 333.475,236.818 329.250 L 236.983 328.333 232.481 328.333 C 229.175 328.333,227.943 328.444,227.842 328.750 M365.562 336.058 C 366.162 336.622,366.333 337.141,366.333 338.391 L 366.333 340.000 362.667 340.000 C 358.735 340.000,358.717 339.990,359.455 338.224 C 360.556 335.589,363.827 334.429,365.562 336.058 M305.993 336.660 C 306.446 337.113,306.602 337.609,306.492 338.243 C 306.403 338.751,306.022 341.041,305.644 343.331 C 304.762 348.676,303.423 350.075,300.204 349.012 C 296.972 347.946,297.855 338.191,301.343 336.426 C 302.664 335.758,305.220 335.887,305.993 336.660 " stroke="none" fill="#040404" fill-rule="evenodd"></path><path id="path1" d="M253.000 73.043 C 216.336 76.012,183.996 103.458,173.709 140.336 C 170.346 152.389,170.346 174.278,173.709 186.331 C 188.792 240.403,247.702 268.890,298.000 246.433 C 350.369 223.052,368.709 158.742,336.386 111.833 C 317.712 84.733,286.714 70.313,253.000 73.043 M248.242 87.696 C 262.512 94.982,246.968 124.129,222.562 135.851 C 202.323 145.572,190.791 135.022,200.743 115.892 C 210.609 96.929,236.373 81.635,248.242 87.696 " stroke="none" fill="#bf04df" fill-rule="evenodd"></path><path id="path2" d="M0.000 200.000 L 0.000 400.000 200.000 400.000 L 400.000 400.000 400.000 200.000 L 400.000 0.000 200.000 0.000 L 0.000 0.000 0.000 200.000 M276.667 43.117 C 299.624 46.945,315.865 53.235,331.167 64.224 C 356.337 82.301,372.034 105.326,378.962 134.333 C 382.179 147.803,382.500 150.432,382.500 163.333 C 382.500 176.235,382.179 178.864,378.962 192.333 C 372.030 221.356,356.351 244.356,331.167 262.442 C 315.633 273.599,298.118 280.278,275.333 283.737 C 271.458 284.325,251.875 284.325,248.000 283.737 C 222.009 279.792,203.925 272.137,185.117 257.119 L 181.640 254.343 126.403 254.255 L 71.167 254.167 69.267 253.440 C 53.483 247.407,54.602 225.075,70.901 220.830 C 72.539 220.403,78.564 220.333,113.740 220.333 L 154.673 220.333 153.045 217.083 C 152.149 215.296,150.626 211.846,149.659 209.417 L 147.902 205.000 100.368 204.996 C 48.728 204.992,51.283 205.082,47.617 203.127 C 35.806 196.827,35.806 179.423,47.617 173.216 C 52.030 170.897,49.480 171.010,97.352 171.005 L 140.537 171.000 140.518 163.667 L 140.500 156.333 87.167 156.331 C 29.687 156.328,30.967 156.367,27.105 154.485 C 13.696 147.951,14.695 128.985,28.752 123.217 L 30.500 122.500 89.106 122.333 L 147.711 122.167 149.638 117.333 C 150.698 114.675,152.190 111.263,152.953 109.750 L 154.341 107.000 127.074 107.000 C 94.469 107.000,95.744 107.167,90.433 102.215 C 81.854 94.216,84.126 79.935,94.808 74.711 C 98.331 72.988,98.003 73.000,140.894 73.000 L 180.998 73.000 182.249 71.889 C 199.930 56.190,223.827 45.891,250.000 42.692 C 254.066 42.195,272.941 42.496,276.667 43.117 M238.233 311.653 C 241.034 313.360,240.227 320.354,237.041 321.979 C 234.310 323.372,230.150 322.711,229.403 320.766 C 228.699 318.934,228.646 318.369,228.982 316.286 C 229.715 311.734,234.465 309.355,238.233 311.653 M58.667 314.330 C 58.667 315.466,54.357 342.373,53.781 344.833 C 51.815 353.231,47.120 357.292,38.696 357.882 C 27.428 358.671,22.755 353.955,24.241 343.290 L 24.791 339.333 29.725 339.333 L 34.659 339.333 34.448 342.314 C 34.122 346.900,35.087 348.333,38.500 348.333 C 43.171 348.333,43.562 347.380,46.501 328.833 C 47.692 321.317,48.744 314.829,48.839 314.417 C 49.095 313.310,58.667 313.225,58.667 314.330 M188.780 323.221 C 188.901 328.476,189.000 338.226,189.000 344.888 L 189.000 357.000 183.727 357.000 L 178.454 357.000 178.603 352.333 L 178.752 347.667 174.385 347.667 L 170.019 347.667 169.525 349.417 C 169.253 350.379,168.671 352.442,168.230 354.000 L 167.430 356.833 162.215 356.925 C 158.610 356.989,157.000 356.905,157.000 356.653 C 157.000 356.363,165.986 328.171,169.878 316.250 L 170.721 313.667 179.640 313.667 L 188.559 313.667 188.780 323.221 M133.212 318.583 C 133.121 318.904,132.807 320.817,132.514 322.833 C 132.221 324.850,131.907 326.837,131.817 327.250 L 131.654 328.000 139.183 328.000 C 146.195 328.000,146.700 328.040,146.544 328.583 C 146.452 328.904,146.124 330.854,145.815 332.917 L 145.254 336.667 137.830 336.667 C 130.406 336.667,130.406 336.667,130.227 337.417 C 129.639 339.889,128.968 345.559,129.150 346.527 C 129.921 350.637,134.787 349.525,136.059 344.947 L 136.554 343.167 141.141 343.074 L 145.729 342.981 145.497 344.407 C 144.015 353.520,137.696 358.640,128.860 357.887 C 122.552 357.350,119.344 354.290,119.337 348.802 C 119.334 346.990,122.615 324.436,123.112 322.851 C 123.202 322.562,132.478 318.083,133.106 318.025 C 133.256 318.011,133.304 318.262,133.212 318.583 M334.879 318.583 C 334.788 318.904,334.473 320.817,334.180 322.833 C 333.887 324.850,333.574 326.837,333.484 327.250 L 333.321 328.000 340.849 328.000 C 347.861 328.000,348.367 328.040,348.211 328.583 C 348.118 328.904,347.790 330.854,347.482 332.917 L 346.921 336.667 339.496 336.667 C 332.072 336.667,332.072 336.667,331.894 337.417 C 331.305 339.889,330.635 345.559,330.816 346.527 C 331.587 350.637,336.454 349.525,337.726 344.947 L 338.221 343.167 342.808 343.074 L 347.395 342.981 347.163 344.407 C 345.681 353.520,339.363 358.640,330.527 357.887 C 324.219 357.350,321.011 354.290,321.003 348.802 C 321.001 346.990,324.282 324.436,324.778 322.851 C 324.869 322.562,334.145 318.083,334.772 318.025 C 334.922 318.011,334.970 318.262,334.879 318.583 M174.527 331.417 C 173.445 335.313,172.492 338.688,172.411 338.917 C 172.298 339.232,173.072 339.333,175.600 339.333 L 178.938 339.333 179.125 336.250 C 179.228 334.554,179.398 331.179,179.502 328.750 L 179.691 324.333 178.093 324.333 L 176.494 324.333 174.527 331.417 M112.230 327.833 C 115.965 328.943,117.810 331.311,117.587 334.709 C 117.361 338.136,117.054 338.333,111.956 338.333 L 107.594 338.333 107.795 337.534 C 108.313 335.471,104.513 334.265,102.222 335.766 C 99.475 337.566,100.804 338.883,106.539 340.043 C 113.912 341.535,115.864 343.324,115.584 348.333 C 115.212 354.972,109.604 358.451,100.173 357.895 C 92.891 357.465,89.694 355.035,89.674 349.917 L 89.667 348.000 94.298 348.000 C 98.167 348.000,98.961 348.085,99.126 348.515 C 99.838 350.370,105.591 350.479,106.172 348.649 C 106.561 347.425,105.686 347.014,101.238 346.331 C 93.671 345.170,91.667 343.500,91.667 338.359 C 91.667 329.828,101.682 324.701,112.230 327.833 M217.393 328.224 C 220.096 329.803,220.546 333.125,219.196 341.543 C 217.976 349.146,218.106 349.734,220.828 348.954 C 221.379 348.796,221.867 348.667,221.914 348.667 C 222.340 348.667,221.920 355.366,221.465 355.820 C 218.707 358.579,212.472 358.598,210.064 355.855 C 208.278 353.822,208.118 352.038,209.131 345.484 C 210.433 337.066,210.308 336.164,207.854 336.234 C 204.673 336.324,204.694 336.278,203.006 347.000 C 202.270 351.675,201.590 355.837,201.494 356.250 C 201.319 357.005,191.979 357.498,192.011 356.750 C 192.016 356.613,193.039 350.125,194.283 342.333 L 196.545 328.167 200.970 328.073 L 205.395 327.980 205.156 329.394 L 204.917 330.808 206.130 329.744 C 209.162 327.082,214.259 326.394,217.393 328.224 M264.167 327.853 C 265.572 328.391,266.767 329.484,267.332 330.747 L 267.920 332.060 268.805 330.900 C 270.628 328.510,273.401 327.266,276.844 327.292 C 284.327 327.349,285.682 330.290,283.834 342.463 C 282.981 348.080,282.997 348.971,283.952 349.039 C 284.781 349.099,284.759 349.101,285.918 348.885 L 287.002 348.683 286.800 352.091 C 286.526 356.696,284.490 358.349,279.635 357.908 C 273.872 357.386,272.530 354.310,274.000 345.000 C 275.251 337.078,274.661 335.446,270.863 336.321 C 268.050 336.968,267.881 337.391,266.284 347.750 L 264.859 357.000 260.104 357.000 L 255.350 357.000 255.516 356.083 C 258.845 337.671,258.638 335.049,253.955 336.342 C 251.656 336.977,251.528 337.321,250.013 347.000 C 249.253 351.858,248.554 356.096,248.459 356.417 C 248.281 357.027,238.985 357.355,239.011 356.750 C 239.016 356.613,240.039 350.125,241.283 342.333 L 243.545 328.167 247.961 328.074 L 252.377 327.980 252.152 329.481 L 251.927 330.981 253.097 329.877 C 255.735 327.390,260.625 326.495,264.167 327.853 M370.021 327.841 C 375.420 329.746,376.880 334.004,375.130 342.750 L 374.947 343.667 366.640 343.667 L 358.333 343.667 358.333 345.682 C 358.333 348.259,359.219 349.333,361.344 349.333 C 362.811 349.333,364.667 347.952,364.667 346.859 C 364.667 346.278,373.446 346.039,373.798 346.610 C 374.087 347.076,373.131 350.168,372.132 352.005 C 368.057 359.492,352.800 360.245,349.222 353.135 C 347.743 350.197,349.014 338.989,351.357 334.304 C 354.258 328.503,363.160 325.420,370.021 327.841 M305.700 327.718 C 306.323 327.929,307.235 328.381,307.726 328.723 C 308.603 329.333,308.622 329.332,308.832 328.672 C 309.067 327.931,317.333 327.594,317.333 328.325 C 317.333 328.503,316.659 332.816,315.835 337.908 C 313.908 349.811,313.895 349.663,316.772 349.014 L 318.000 348.737 318.000 352.195 L 318.000 355.653 316.252 356.652 C 312.268 358.927,307.594 358.171,305.866 354.973 L 305.232 353.799 303.657 355.375 C 299.514 359.518,291.454 358.598,289.229 353.727 C 287.394 349.709,289.497 336.340,292.658 331.925 C 295.415 328.076,301.227 326.201,305.700 327.718 M71.000 328.293 C 71.000 328.454,70.400 332.354,69.667 336.959 C 68.089 346.866,68.078 347.108,69.152 348.182 C 70.363 349.393,73.367 349.088,74.547 347.635 C 74.756 347.377,75.547 343.267,76.304 338.500 C 77.061 333.733,77.765 329.421,77.867 328.917 L 78.053 328.000 82.693 328.000 C 85.245 328.000,87.337 328.112,87.343 328.250 C 87.348 328.387,86.641 332.979,85.772 338.453 C 84.072 349.161,84.082 349.703,85.983 349.199 C 86.267 349.124,86.875 348.979,87.333 348.879 L 88.167 348.695 88.064 352.098 C 87.946 356.025,87.578 356.586,84.523 357.505 C 80.411 358.743,76.067 357.114,75.476 354.115 L 75.289 353.167 73.348 355.060 C 67.466 360.795,58.367 358.177,58.341 350.741 C 58.335 349.068,60.708 332.812,61.527 328.917 L 61.720 328.000 66.360 328.000 C 68.912 328.000,71.000 328.132,71.000 328.293 M237.000 328.639 C 237.000 328.991,236.326 333.481,235.502 338.617 C 233.741 349.594,233.740 349.579,236.657 348.952 C 238.148 348.632,238.067 348.383,237.763 352.361 L 237.500 355.807 235.948 356.766 C 232.048 359.174,226.045 357.821,224.688 354.228 C 224.046 352.530,224.313 349.424,226.000 338.934 C 226.917 333.236,227.667 328.444,227.667 328.287 C 227.667 328.129,229.767 328.000,232.333 328.000 C 236.711 328.000,237.000 328.040,237.000 328.639 M361.752 335.865 C 360.622 336.439,359.333 338.181,359.333 339.134 C 359.333 339.623,359.745 339.679,362.750 339.595 L 366.167 339.500 366.252 338.333 C 366.423 335.990,364.059 334.693,361.752 335.865 M301.690 336.566 C 299.620 337.654,298.335 341.239,298.334 345.932 C 298.333 348.798,301.612 350.125,303.912 348.190 C 305.170 347.131,306.832 337.689,305.921 336.778 C 305.128 335.985,302.998 335.878,301.690 336.566 " stroke="none" fill="#fbfbfb" fill-rule="evenodd"></path><path id="path3" d="M237.167 86.805 C 217.885 91.230,197.328 112.587,197.196 128.333 C 197.033 147.747,227.894 140.402,245.607 116.810 C 259.133 98.796,254.633 82.796,237.167 86.805 M140.457 163.333 C 140.457 165.258,140.512 166.046,140.579 165.083 C 140.646 164.121,140.646 162.546,140.579 161.583 C 140.512 160.621,140.457 161.408,140.457 163.333 M188.795 330.333 C 188.795 332.625,188.848 333.563,188.913 332.417 C 188.979 331.271,188.979 329.396,188.913 328.250 C 188.848 327.104,188.795 328.042,188.795 330.333 M109.750 338.247 C 110.987 338.311,113.013 338.311,114.250 338.247 C 115.487 338.183,114.475 338.131,112.000 338.131 C 109.525 338.131,108.513 338.183,109.750 338.247 " stroke="none" fill="#ebb3f3" fill-rule="evenodd"></path><path id="path4" d="M254.088 42.573 C 254.595 42.649,255.345 42.647,255.755 42.568 C 256.165 42.489,255.750 42.426,254.833 42.429 C 253.917 42.431,253.581 42.496,254.088 42.573 M267.917 42.569 C 268.329 42.648,269.004 42.648,269.417 42.569 C 269.829 42.489,269.492 42.424,268.667 42.424 C 267.842 42.424,267.504 42.489,267.917 42.569 M250.083 42.896 C 250.404 42.980,250.929 42.980,251.250 42.896 C 251.571 42.813,251.308 42.744,250.667 42.744 C 250.025 42.744,249.762 42.813,250.083 42.896 M272.083 42.896 C 272.404 42.980,272.929 42.980,273.250 42.896 C 273.571 42.813,273.308 42.744,272.667 42.744 C 272.025 42.744,271.762 42.813,272.083 42.896 M218.500 50.178 C 217.666 50.580,217.639 50.626,218.333 50.456 C 219.278 50.226,220.339 49.684,219.833 49.692 C 219.650 49.695,219.050 49.913,218.500 50.178 M120.417 73.250 C 131.554 73.299,149.779 73.299,160.917 73.250 C 172.054 73.201,162.942 73.161,140.667 73.161 C 118.392 73.161,109.279 73.201,120.417 73.250 M343.333 74.167 C 343.955 74.808,344.539 75.333,344.631 75.333 C 344.722 75.333,344.289 74.808,343.667 74.167 C 343.045 73.525,342.461 73.000,342.369 73.000 C 342.278 73.000,342.711 73.525,343.333 74.167 M347.167 77.667 C 347.883 78.400,348.544 79.000,348.635 79.000 C 348.727 79.000,348.216 78.400,347.500 77.667 C 346.784 76.933,346.123 76.333,346.031 76.333 C 345.940 76.333,346.451 76.933,347.167 77.667 M90.151 78.083 L 88.833 79.500 90.250 78.182 C 91.567 76.957,91.820 76.667,91.568 76.667 C 91.513 76.667,90.876 77.304,90.151 78.083 M350.667 81.500 C 351.289 82.142,351.872 82.667,351.964 82.667 C 352.056 82.667,351.622 82.142,351.000 81.500 C 350.378 80.858,349.794 80.333,349.703 80.333 C 349.611 80.333,350.045 80.858,350.667 81.500 M90.167 102.000 C 91.070 102.917,91.883 103.667,91.975 103.667 C 92.067 103.667,91.403 102.917,90.500 102.000 C 89.597 101.083,88.783 100.333,88.692 100.333 C 88.600 100.333,89.264 101.083,90.167 102.000 M109.333 106.911 C 135.012 107.141,154.589 107.143,154.449 106.917 C 154.364 106.779,141.965 106.702,126.897 106.745 C 111.829 106.788,103.925 106.863,109.333 106.911 M382.077 152.333 C 382.077 152.975,382.146 153.237,382.230 152.917 C 382.314 152.596,382.314 152.071,382.230 151.750 C 382.146 151.429,382.077 151.692,382.077 152.333 M382.424 156.333 C 382.424 157.158,382.489 157.496,382.569 157.083 C 382.648 156.671,382.648 155.996,382.569 155.583 C 382.489 155.171,382.424 155.508,382.424 156.333 M86.896 156.250 L 140.625 156.335 140.759 157.418 C 140.891 158.482,140.894 158.479,140.947 157.250 L 141.000 156.000 87.083 156.082 L 33.167 156.165 86.896 156.250 M140.667 169.665 L 140.667 170.997 97.750 171.083 L 54.833 171.169 97.917 171.251 L 141.000 171.333 141.000 169.833 C 141.000 169.008,140.925 168.333,140.833 168.333 C 140.742 168.333,140.667 168.933,140.667 169.665 M382.424 170.333 C 382.424 171.158,382.489 171.496,382.569 171.083 C 382.648 170.671,382.648 169.996,382.569 169.583 C 382.489 169.171,382.424 169.508,382.424 170.333 M382.077 174.333 C 382.077 174.975,382.146 175.237,382.230 174.917 C 382.314 174.596,382.314 174.071,382.230 173.750 C 382.146 173.429,382.077 173.692,382.077 174.333 M43.487 176.417 L 41.833 178.167 43.583 176.513 C 44.546 175.603,45.333 174.815,45.333 174.763 C 45.333 174.514,45.025 174.791,43.487 176.417 M38.776 188.167 C 38.778 189.450,38.838 189.934,38.910 189.243 C 38.982 188.551,38.981 187.501,38.907 186.909 C 38.834 186.317,38.775 186.883,38.776 188.167 M43.500 200.000 C 44.216 200.733,44.877 201.333,44.969 201.333 C 45.060 201.333,44.549 200.733,43.833 200.000 C 43.117 199.267,42.456 198.667,42.365 198.667 C 42.273 198.667,42.784 199.267,43.500 200.000 M113.667 220.333 L 72.500 220.504 113.750 220.585 C 141.082 220.639,155.000 220.554,155.000 220.333 C 155.000 220.150,154.962 220.037,154.917 220.081 C 154.871 220.126,136.308 220.240,113.667 220.333 M350.649 245.250 L 349.500 246.500 350.750 245.351 C 351.913 244.282,352.153 244.000,351.899 244.000 C 351.843 244.000,351.281 244.563,350.649 245.250 M347.151 249.083 L 345.833 250.500 347.250 249.182 C 348.567 247.957,348.820 247.667,348.568 247.667 C 348.513 247.667,347.876 248.304,347.151 249.083 M343.151 252.750 L 341.833 254.167 343.250 252.849 C 344.567 251.624,344.820 251.333,344.568 251.333 C 344.513 251.333,343.876 251.971,343.151 252.750 M99.943 254.250 C 115.037 254.298,139.637 254.298,154.610 254.250 C 169.583 254.202,157.233 254.163,127.167 254.163 C 97.100 254.163,84.849 254.202,99.943 254.250 M209.667 272.833 C 210.125 273.095,210.650 273.310,210.833 273.310 C 211.017 273.310,210.792 273.095,210.333 272.833 C 209.875 272.571,209.350 272.357,209.167 272.357 C 208.983 272.357,209.208 272.571,209.667 272.833 M218.000 276.277 C 218.275 276.447,218.875 276.686,219.333 276.809 C 219.912 276.964,220.014 276.938,219.667 276.723 C 219.392 276.553,218.792 276.314,218.333 276.191 C 217.754 276.036,217.653 276.062,218.000 276.277 M250.083 283.896 C 250.404 283.980,250.929 283.980,251.250 283.896 C 251.571 283.813,251.308 283.744,250.667 283.744 C 250.025 283.744,249.762 283.813,250.083 283.896 M272.083 283.896 C 272.404 283.980,272.929 283.980,273.250 283.896 C 273.571 283.813,273.308 283.744,272.667 283.744 C 272.025 283.744,271.762 283.813,272.083 283.896 M254.088 284.239 C 254.595 284.316,255.345 284.314,255.755 284.235 C 256.165 284.156,255.750 284.093,254.833 284.095 C 253.917 284.098,253.581 284.163,254.088 284.239 M267.917 284.235 C 268.329 284.315,269.004 284.315,269.417 284.235 C 269.829 284.156,269.492 284.091,268.667 284.091 C 267.842 284.091,267.504 284.156,267.917 284.235 M175.083 313.916 C 177.604 313.972,181.729 313.972,184.250 313.916 C 186.771 313.859,184.708 313.813,179.667 313.813 C 174.625 313.813,172.563 313.859,175.083 313.916 M239.744 315.667 C 239.744 316.308,239.813 316.571,239.896 316.250 C 239.980 315.929,239.980 315.404,239.896 315.083 C 239.813 314.762,239.744 315.025,239.744 315.667 M105.921 327.236 C 106.335 327.315,106.935 327.312,107.254 327.229 C 107.573 327.146,107.233 327.080,106.500 327.084 C 105.767 327.088,105.506 327.156,105.921 327.236 M364.417 327.230 C 364.738 327.314,365.262 327.314,365.583 327.230 C 365.904 327.146,365.642 327.077,365.000 327.077 C 364.358 327.077,364.096 327.146,364.417 327.230 M66.061 328.249 C 70.043 328.339,70.640 328.425,70.772 328.926 C 70.882 329.347,70.933 329.300,70.961 328.750 C 71.000 328.002,70.986 328.000,66.250 328.073 L 61.500 328.146 66.061 328.249 M80.250 328.248 C 81.579 328.311,83.754 328.311,85.083 328.248 C 86.412 328.184,85.325 328.132,82.667 328.132 C 80.008 328.132,78.921 328.184,80.250 328.248 M135.250 328.249 C 137.313 328.307,140.688 328.307,142.750 328.249 C 144.813 328.190,143.125 328.143,139.000 328.143 C 134.875 328.143,133.188 328.190,135.250 328.249 M200.654 328.250 C 203.452 328.321,204.892 328.487,205.065 328.761 C 205.244 329.041,205.325 328.987,205.328 328.583 C 205.333 328.053,204.930 328.007,200.917 328.072 L 196.500 328.144 200.654 328.250 M227.666 328.250 C 227.666 328.387,229.128 328.460,230.916 328.412 C 236.707 328.254,237.274 328.122,232.417 328.060 C 229.804 328.027,227.666 328.112,227.666 328.250 M247.654 328.250 C 250.452 328.321,251.892 328.487,252.065 328.761 C 252.244 329.041,252.325 328.987,252.328 328.583 C 252.333 328.053,251.930 328.007,247.917 328.072 L 243.500 328.144 247.654 328.250 M312.894 328.249 C 316.400 328.339,316.976 328.432,317.105 328.927 C 317.216 329.346,317.266 329.298,317.295 328.750 C 317.333 328.006,317.300 328.001,313.083 328.072 L 308.833 328.144 312.894 328.249 M336.917 328.249 C 338.979 328.307,342.354 328.307,344.417 328.249 C 346.479 328.190,344.792 328.143,340.667 328.143 C 336.542 328.143,334.854 328.190,336.917 328.249 M179.437 330.500 C 179.438 331.600,179.501 332.010,179.575 331.411 C 179.649 330.812,179.648 329.912,179.572 329.411 C 179.495 328.910,179.435 329.400,179.437 330.500 M117.424 334.333 C 117.424 335.158,117.489 335.496,117.569 335.083 C 117.648 334.671,117.648 333.996,117.569 333.583 C 117.489 333.171,117.424 333.508,117.424 334.333 M188.817 345.667 C 188.817 351.992,188.861 354.579,188.916 351.417 C 188.971 348.254,188.971 343.079,188.916 339.917 C 188.861 336.754,188.817 339.342,188.817 345.667 M219.744 336.000 C 219.744 336.642,219.813 336.904,219.896 336.583 C 219.980 336.262,219.980 335.737,219.896 335.417 C 219.813 335.096,219.744 335.358,219.744 336.000 M179.045 338.271 L 179.000 339.376 175.499 339.271 C 173.574 339.214,171.999 339.279,171.999 339.417 C 172.000 339.554,173.580 339.667,175.510 339.667 C 179.265 339.667,179.543 339.538,179.238 337.941 C 179.128 337.363,179.079 337.447,179.045 338.271 M210.084 338.833 C 210.088 339.567,210.156 339.827,210.236 339.413 C 210.315 338.998,210.312 338.398,210.229 338.079 C 210.146 337.761,210.080 338.100,210.084 338.833 M258.084 339.167 C 258.088 339.900,258.156 340.161,258.236 339.746 C 258.315 339.331,258.312 338.731,258.229 338.413 C 258.146 338.094,258.080 338.433,258.084 339.167 M274.757 339.333 C 274.757 340.158,274.822 340.496,274.902 340.083 C 274.981 339.671,274.981 338.996,274.902 338.583 C 274.822 338.171,274.757 338.508,274.757 339.333 M360.750 339.913 C 361.804 339.979,363.529 339.979,364.583 339.913 C 365.637 339.847,364.775 339.793,362.667 339.793 C 360.558 339.793,359.696 339.847,360.750 339.913 M34.091 344.000 C 34.091 344.825,34.156 345.162,34.235 344.750 C 34.315 344.337,34.315 343.662,34.235 343.250 C 34.156 342.837,34.091 343.175,34.091 344.000 M136.492 343.346 C 136.368 343.547,136.357 343.801,136.467 343.911 C 136.577 344.021,136.667 343.936,136.667 343.722 C 136.667 343.149,145.232 343.177,145.424 343.750 C 145.505 343.990,145.549 343.955,145.528 343.667 C 145.482 343.036,136.872 342.731,136.492 343.346 M338.159 343.346 C 338.035 343.547,338.023 343.801,338.133 343.911 C 338.243 344.021,338.333 343.936,338.333 343.722 C 338.333 343.149,346.898 343.177,347.091 343.750 C 347.172 343.990,347.215 343.955,347.195 343.667 C 347.149 343.036,338.539 342.731,338.159 343.346 M362.417 343.582 C 364.754 343.640,368.579 343.640,370.917 343.582 C 373.254 343.525,371.342 343.478,366.667 343.478 C 361.992 343.478,360.079 343.525,362.417 343.582 M298.084 345.833 C 298.088 346.567,298.156 346.827,298.236 346.413 C 298.315 345.998,298.312 345.398,298.229 345.079 C 298.146 344.761,298.080 345.100,298.084 345.833 M358.091 346.000 C 358.091 346.825,358.156 347.162,358.235 346.750 C 358.315 346.337,358.315 345.662,358.235 345.250 C 358.156 344.837,358.091 345.175,358.091 346.000 M364.884 346.583 C 364.798 346.721,365.952 346.793,367.447 346.744 C 372.348 346.582,372.901 346.451,368.936 346.392 C 366.793 346.360,364.969 346.446,364.884 346.583 M178.767 349.333 C 178.767 350.342,178.829 350.754,178.905 350.250 C 178.982 349.746,178.982 348.921,178.905 348.417 C 178.829 347.912,178.767 348.325,178.767 349.333 M288.424 349.333 C 288.424 350.158,288.489 350.496,288.569 350.083 C 288.648 349.671,288.648 348.996,288.569 348.583 C 288.489 348.171,288.424 348.508,288.424 349.333 M348.417 349.167 C 348.421 349.900,348.489 350.161,348.569 349.746 C 348.649 349.331,348.646 348.731,348.562 348.413 C 348.479 348.094,348.414 348.433,348.417 349.167 M37.921 348.569 C 38.335 348.649,38.935 348.646,39.254 348.562 C 39.573 348.479,39.233 348.414,38.500 348.417 C 37.767 348.421,37.506 348.489,37.921 348.569 M237.585 349.500 C 237.673 349.958,237.802 350.333,237.872 350.333 C 237.942 350.333,238.000 349.958,238.000 349.500 C 238.000 349.042,237.871 348.667,237.713 348.667 C 237.555 348.667,237.497 349.042,237.585 349.500 M221.773 352.667 C 221.773 353.858,221.834 354.346,221.908 353.750 C 221.982 353.154,221.982 352.179,221.908 351.583 C 221.834 350.988,221.773 351.475,221.773 352.667 M317.767 353.667 C 317.767 354.675,317.829 355.087,317.905 354.583 C 317.982 354.079,317.982 353.254,317.905 352.750 C 317.829 352.246,317.767 352.658,317.767 353.667 M87.658 354.401 C 87.570 355.263,87.621 355.846,87.772 355.695 C 87.922 355.544,87.995 354.839,87.932 354.127 L 87.819 352.833 87.658 354.401 M35.750 357.909 C 36.438 357.981,37.563 357.981,38.250 357.909 C 38.938 357.838,38.375 357.779,37.000 357.779 C 35.625 357.779,35.063 357.838,35.750 357.909 M65.417 357.905 C 65.921 357.982,66.746 357.982,67.250 357.905 C 67.754 357.829,67.342 357.767,66.333 357.767 C 65.325 357.767,64.912 357.829,65.417 357.905 M81.088 357.906 C 81.595 357.982,82.345 357.980,82.755 357.901 C 83.165 357.822,82.750 357.760,81.833 357.762 C 80.917 357.765,80.581 357.829,81.088 357.906 M100.259 357.911 C 101.043 357.982,102.243 357.981,102.925 357.909 C 103.608 357.837,102.967 357.780,101.500 357.781 C 100.033 357.782,99.475 357.841,100.259 357.911 M129.250 357.908 C 129.846 357.982,130.821 357.982,131.417 357.908 C 132.012 357.834,131.525 357.773,130.333 357.773 C 129.142 357.773,128.654 357.834,129.250 357.908 M215.088 357.906 C 215.595 357.982,216.345 357.980,216.755 357.901 C 217.165 357.822,216.750 357.760,215.833 357.762 C 214.917 357.765,214.581 357.829,215.088 357.906 M230.755 357.906 C 231.261 357.982,232.011 357.980,232.421 357.901 C 232.831 357.822,232.417 357.760,231.500 357.762 C 230.583 357.765,230.248 357.829,230.755 357.906 M279.755 357.906 C 280.261 357.982,281.011 357.980,281.421 357.901 C 281.831 357.822,281.417 357.760,280.500 357.762 C 279.583 357.765,279.248 357.829,279.755 357.906 M296.417 357.905 C 296.921 357.982,297.746 357.982,298.250 357.905 C 298.754 357.829,298.342 357.767,297.333 357.767 C 296.325 357.767,295.912 357.829,296.417 357.905 M311.088 357.906 C 311.595 357.982,312.345 357.980,312.755 357.901 C 313.165 357.822,312.750 357.760,311.833 357.762 C 310.917 357.765,310.581 357.829,311.088 357.906 M330.917 357.908 C 331.512 357.982,332.487 357.982,333.083 357.908 C 333.679 357.834,333.192 357.773,332.000 357.773 C 330.808 357.773,330.321 357.834,330.917 357.908 M358.576 357.907 C 359.168 357.981,360.218 357.982,360.909 357.910 C 361.601 357.838,361.117 357.778,359.833 357.776 C 358.550 357.775,357.984 357.834,358.576 357.907 " stroke="none" fill="#9d9d9d" fill-rule="evenodd"></path></g></svg>